<mxfile host="app.diagrams.net" modified="2021-06-09T09:40:02.470Z" agent="5.0 (Macintosh; Intel Mac OS X 10_15_7) AppleWebKit/537.36 (KHTML, like Gecko) Chrome/86.0.4240.193 Safari/537.36" etag="N5ggoBVQc9dbb9cb5oG2" version="14.7.6" type="github">
  <diagram id="43lwU4hjst_tyaB0GnKd" name="Page-1">
    <mxGraphModel dx="946" dy="536" grid="1" gridSize="10" guides="1" tooltips="1" connect="1" arrows="1" fold="1" page="1" pageScale="1" pageWidth="827" pageHeight="1169" math="0" shadow="0">
      <root>
        <mxCell id="0" />
        <mxCell id="1" parent="0" />
        <mxCell id="nUXMCFIzMYrR4--K0lze-4" value="" style="rounded=1;whiteSpace=wrap;html=1;fillColor=#ffe6cc;strokeColor=#d79b00;" vertex="1" parent="1">
          <mxGeometry x="130" y="110" width="240" height="180" as="geometry" />
        </mxCell>
        <mxCell id="nUXMCFIzMYrR4--K0lze-2" value="&lt;pre&gt;&lt;br&gt;&lt;/pre&gt;" style="rounded=1;whiteSpace=wrap;html=1;fillColor=#fff2cc;strokeColor=#d6b656;" vertex="1" parent="1">
          <mxGeometry x="155" y="150" width="190" height="120" as="geometry" />
        </mxCell>
        <mxCell id="nUXMCFIzMYrR4--K0lze-1" value="&lt;pre&gt;DubboInvoker&lt;/pre&gt;" style="rounded=1;whiteSpace=wrap;html=1;fillColor=#dae8fc;strokeColor=#6c8ebf;" vertex="1" parent="1">
          <mxGeometry x="190" y="190" width="120" height="60" as="geometry" />
        </mxCell>
        <mxCell id="nUXMCFIzMYrR4--K0lze-3" value="&lt;pre&gt;FailoverClusterInvoker&lt;/pre&gt;" style="text;html=1;strokeColor=none;fillColor=none;align=center;verticalAlign=middle;whiteSpace=wrap;rounded=0;" vertex="1" parent="1">
          <mxGeometry x="160" y="160" width="190" height="30" as="geometry" />
        </mxCell>
        <mxCell id="nUXMCFIzMYrR4--K0lze-5" value="&lt;pre&gt;MockClusterInvoker&lt;/pre&gt;" style="text;html=1;strokeColor=none;fillColor=none;align=center;verticalAlign=middle;whiteSpace=wrap;rounded=0;" vertex="1" parent="1">
          <mxGeometry x="235" y="120" width="40" height="20" as="geometry" />
        </mxCell>
      </root>
    </mxGraphModel>
  </diagram>
</mxfile>
